<mxfile host="app.diagrams.net" modified="2020-07-19T05:11:36.922Z" agent="5.0 (Macintosh; Intel Mac OS X 10_15_5) AppleWebKit/537.36 (KHTML, like Gecko) Chrome/83.0.4103.116 Safari/537.36" etag="5W1MnPFxlp5DYd9MN8x9" version="13.4.6" type="github">
  <diagram id="XElhAfXTPB-W4nO4nVsO" name="Page-1">
    <mxGraphModel dx="2066" dy="1154" grid="1" gridSize="10" guides="1" tooltips="1" connect="1" arrows="1" fold="1" page="1" pageScale="1" pageWidth="827" pageHeight="1169" math="0" shadow="0">
      <root>
        <mxCell id="0" />
        <mxCell id="1" parent="0" />
        <mxCell id="_4Y9ZesxhvsSrRKwjPoS-4" style="edgeStyle=orthogonalEdgeStyle;rounded=0;orthogonalLoop=1;jettySize=auto;html=1;entryX=0;entryY=0.5;entryDx=0;entryDy=0;curved=1;" edge="1" parent="1" source="_4Y9ZesxhvsSrRKwjPoS-1" target="_4Y9ZesxhvsSrRKwjPoS-2">
          <mxGeometry relative="1" as="geometry" />
        </mxCell>
        <mxCell id="_4Y9ZesxhvsSrRKwjPoS-1" value="" style="rounded=0;whiteSpace=wrap;html=1;fillColor=#dae8fc;strokeColor=#6c8ebf;" vertex="1" parent="1">
          <mxGeometry x="140" y="420" width="120" height="30" as="geometry" />
        </mxCell>
        <mxCell id="_4Y9ZesxhvsSrRKwjPoS-5" style="edgeStyle=orthogonalEdgeStyle;curved=1;rounded=0;orthogonalLoop=1;jettySize=auto;html=1;entryX=0;entryY=0.5;entryDx=0;entryDy=0;" edge="1" parent="1" source="_4Y9ZesxhvsSrRKwjPoS-2" target="_4Y9ZesxhvsSrRKwjPoS-3">
          <mxGeometry relative="1" as="geometry" />
        </mxCell>
        <mxCell id="_4Y9ZesxhvsSrRKwjPoS-2" value="" style="rounded=0;whiteSpace=wrap;html=1;fillColor=#f8cecc;strokeColor=#b85450;" vertex="1" parent="1">
          <mxGeometry x="380" y="270" width="120" height="30" as="geometry" />
        </mxCell>
        <mxCell id="_4Y9ZesxhvsSrRKwjPoS-3" value="" style="rounded=0;whiteSpace=wrap;html=1;fillColor=#dae8fc;strokeColor=#6c8ebf;" vertex="1" parent="1">
          <mxGeometry x="570" y="420" width="120" height="30" as="geometry" />
        </mxCell>
        <mxCell id="_4Y9ZesxhvsSrRKwjPoS-6" value="3" style="ellipse;whiteSpace=wrap;html=1;aspect=fixed;fillColor=#fff2cc;strokeColor=#d6b656;" vertex="1" parent="1">
          <mxGeometry x="60" y="420" width="30" height="30" as="geometry" />
        </mxCell>
        <mxCell id="_4Y9ZesxhvsSrRKwjPoS-7" value="0" style="ellipse;whiteSpace=wrap;html=1;aspect=fixed;fillColor=#fff2cc;strokeColor=#d6b656;" vertex="1" parent="1">
          <mxGeometry x="60" y="270" width="30" height="30" as="geometry" />
        </mxCell>
        <mxCell id="_4Y9ZesxhvsSrRKwjPoS-8" value="" style="endArrow=classic;html=1;dashed=1;" edge="1" parent="1">
          <mxGeometry width="50" height="50" relative="1" as="geometry">
            <mxPoint x="40" y="440" as="sourcePoint" />
            <mxPoint x="40" y="280" as="targetPoint" />
          </mxGeometry>
        </mxCell>
        <mxCell id="2" value="&lt;font style=&quot;font-size: 16px&quot;&gt;OS&lt;/font&gt;" style="text;html=1;align=center;verticalAlign=middle;resizable=0;points=[];autosize=1;" vertex="1" parent="1">
          <mxGeometry x="370" y="220" width="40" height="20" as="geometry" />
        </mxCell>
        <mxCell id="_4Y9ZesxhvsSrRKwjPoS-9" value="User process 1" style="text;html=1;align=center;verticalAlign=middle;resizable=0;points=[];autosize=1;" vertex="1" parent="1">
          <mxGeometry x="140" y="470" width="100" height="20" as="geometry" />
        </mxCell>
        <mxCell id="_4Y9ZesxhvsSrRKwjPoS-10" value="User process 2" style="text;html=1;align=center;verticalAlign=middle;resizable=0;points=[];autosize=1;" vertex="1" parent="1">
          <mxGeometry x="580" y="470" width="100" height="20" as="geometry" />
        </mxCell>
        <mxCell id="_4Y9ZesxhvsSrRKwjPoS-11" value="" style="endArrow=classic;html=1;entryX=1;entryY=0.5;entryDx=0;entryDy=0;strokeWidth=2;fillColor=#f8cecc;strokeColor=#b85450;" edge="1" parent="1" target="_4Y9ZesxhvsSrRKwjPoS-1">
          <mxGeometry width="50" height="50" relative="1" as="geometry">
            <mxPoint x="260" y="530" as="sourcePoint" />
            <mxPoint x="360" y="460" as="targetPoint" />
          </mxGeometry>
        </mxCell>
        <mxCell id="_4Y9ZesxhvsSrRKwjPoS-12" value="Event" style="text;html=1;align=center;verticalAlign=middle;resizable=0;points=[];autosize=1;" vertex="1" parent="1">
          <mxGeometry x="235" y="530" width="50" height="20" as="geometry" />
        </mxCell>
      </root>
    </mxGraphModel>
  </diagram>
</mxfile>
